<?xml version="1.0" encoding="UTF-8"?><svg data-noselect="" viewBox="167 -65.99999999999997 940 705" width="940" ref="svg_canvas" height="705" preserveAspectRatio="none" version="1.1" xmlns="http://www.w3.org/2000/svg" style="background: #ffffff;"><defs><pattern id="wm_tile" x="0" y="0" width="15%" height="20%" patternunits="objectBoundingBox"><g id="wm_lm" transform="translate(-188.000000, -323.000000)" fill="#cccccc"><text font-size="10" transform="translate(270.490979, 373.245789) rotate(-390.000000) translate(-270.490979, -373.245789)"><tspan x="187.490979" opacity=".5" y="378.245789">code-trend</tspan></text></g></pattern></defs><rect x="167" y="-76" width="100%" height="100%" style="fill: url(#wm_tile);"></rect>
    <def></def>
    <g id="shape_7gYvXoKydf" ref="shape_7gYvXoKydf" key="shape_7gYvXoKydf" transform="translate(247,210.67217630854) rotate(0,80,67.32782369146) scale(1,1)" style="cursor:move;display:inline;opacity:1;" filter="">
            <g style="display:inline"><rect fill="rgba(0,0,0,0)" width="180" height="154.6556473829201" x="-10" y="-10"></rect><svg version="1.1" id="图层_1" xmlns="http://www.w3.org/2000/svg" xmlns:xlink="http://www.w3.org/1999/xlink" x="0px" y="0px" viewBox="0 0 217.8 183.3" style="enable-background:new 0 0 217.8 183.3;" xml:space="preserve" width="160" height="134.6556473829201" class="style-removed" preserveAspectRatio="none" data-parent="shape_7gYvXoKydf">

<g>
	<g>
		<path d="M52.3,0l5.6,41.7c0.4,2.5,2.4,4.5,5,5l41.7,5.6l-41.7,5.6c-2.5,0.4-4.5,2.4-5,5l-5.6,41.7l-5.6-41.7
			c-0.4-2.5-2.4-4.5-5-5L0,52.3l41.7-5.6c2.5-0.4,4.5-2.4,5-5L52.3,0z" fill="#1A182F" stroke-width="0"></path>
	</g>
	<g>
		<g>
			<path d="M43.7,144c-0.9,0-1.8-0.5-2.3-1.3C33.9,130,30,115.4,30,100.6c0-11.7,2.4-23.1,7.1-33.7
				c0.6-1.3,2.2-1.9,3.5-1.3c1.3,0.6,1.9,2.2,1.3,3.5c-4.4,10-6.7,20.6-6.7,31.6c0,13.9,3.7,27.5,10.7,39.4c0.7,1.3,0.3,2.9-0.9,3.6
				C44.6,143.9,44.2,144,43.7,144z" fill="#1A182F" stroke-width="0"></path>
		</g>
		<g>
			<path d="M104.9,183.3c-0.1,0-0.2,0-0.3,0c-15.6-1.6-30.4-7.5-42.7-17.2l-6.7-5.4c-1.1-0.9-1.3-2.6-0.4-3.7
				c0.9-1.1,2.6-1.3,3.7-0.4l6.6,5.4c11.5,9,25.4,14.6,40,16.1c1.5,0.1,2.5,1.4,2.4,2.9C107.4,182.3,106.3,183.3,104.9,183.3z" fill="#1A182F" stroke-width="0"></path>
		</g>
		<g>
			<path d="M192.4,89.1c-1.3,0-2.4-0.9-2.6-2.2c-2.1-11.9-7.1-23.4-14.4-33.1c-0.9-1.2-0.6-2.8,0.5-3.7
				c1.2-0.9,2.8-0.6,3.7,0.5c7.8,10.4,13.1,22.6,15.4,35.3c0.3,1.4-0.7,2.8-2.2,3.1C192.7,89.1,192.5,89.1,192.4,89.1z" fill="#1A182F" stroke-width="0"></path>
		</g>
		<g>
			<path d="M66.7,37.5c-0.8,0-1.6-0.4-2.2-1.1c-0.8-1.2-0.6-2.9,0.6-3.7c14.1-10,30.7-15.2,48-15.2
				c16.7,0,32.7,4.9,46.5,14.2c1.2,0.8,1.5,2.5,0.7,3.7c-0.8,1.2-2.5,1.5-3.7,0.7c-12.9-8.7-27.9-13.3-43.5-13.3
				c-16.2,0-31.7,4.9-44.9,14.3C67.7,37.3,67.2,37.5,66.7,37.5z" fill="#1A182F" stroke-width="0"></path>
		</g>
	</g>
	<g>
		<circle cx="167.6" cy="43.5" r="7.9" fill="#1A182F" stroke-width="0"></circle>
	</g>
	<g>
		<circle cx="50.1" cy="149.7" r="5.7" fill="#1A182F" stroke-width="0"></circle>
	</g>
	<g>
		<circle cx="148.3" cy="9.8" r="5.6" fill="#1A182F" stroke-width="0"></circle>
	</g>
	<g>
		<circle cx="212.2" cy="75.6" r="5.6" fill="#1A182F" stroke-width="0"></circle>
	</g>
	<g>
		<circle cx="126.6" cy="59.6" r="4.9" fill="#1A182F" stroke-width="0"></circle>
	</g>
	<g>
		<path d="M61.4,147.7c-1.3,0-2.5-1-2.6-2.3c-0.1-1.4,0.9-2.7,2.3-2.9c16.8-1.8,36.6-11,46-21.5c1-1.1,2.6-1.2,3.7-0.2
			c1.1,1,1.2,2.6,0.2,3.7c-10.4,11.5-31.1,21.3-49.4,23.2C61.6,147.7,61.5,147.7,61.4,147.7z" fill="#1A182F" stroke-width="0"></path>
	</g>
	<g>
		<path d="M126.8,94.1c-0.3,0-0.5,0-0.8-0.1c-1.4-0.4-2.1-1.9-1.7-3.3c2.1-6.5,2.9-12.9,2.3-18.8
			c-0.2-1.4,0.9-2.7,2.3-2.9c1.4-0.2,2.7,0.9,2.9,2.3c0.7,6.7-0.1,13.8-2.5,21C128.9,93.4,127.9,94.1,126.8,94.1z" fill="#1A182F" stroke-width="0"></path>
	</g>
	<g>
		<path d="M120.2,52.5c-0.7,0-1.5-0.3-2-0.9C111,43,94.1,39.7,81.9,41.1c-1.4,0.1-2.7-0.9-2.9-2.3
			c-0.2-1.4,0.9-2.7,2.3-2.9c13.9-1.5,32.4,2.2,40.9,12.3c0.9,1.1,0.8,2.8-0.3,3.7C121.4,52.3,120.8,52.5,120.2,52.5z" fill="#1A182F" stroke-width="0"></path>
	</g>
</g>
</svg></g>
        </g><g id="shape_HisZ12789n" ref="shape_HisZ12789n" key="shape_HisZ12789n" transform="translate(259.28,40.16782369146003) rotate(0,234.63545280136,276.15999999999997) scale(1,1)" style="cursor:move;display:inline;opacity:1;" filter="">
            <g style="display:inline"><svg xmlns="http://www.w3.org/2000/svg" version="1.1" xmlns:xlink="http://www.w3.org/1999/xlink" width="997.88" height="552.3199999999999" viewBox="0 0 997.88 552.3199999999999" preserveAspectRatio="none" data-parent="shape_HisZ12789n"><rect fill="rgba(0,0,0,0)" width="691" height="92" x="76.72" y="230.16"></rect><g data-width="690.4800000000001" transform="translate(76.72, 0)"><path d="M59.07-11.74L63.06-7.13Q59.23-3.22 54.47-1.15Q49.71 0.92 43.35 0.92L43.35 0.92Q35.29 0.92 29.04-2.57Q22.79-6.06 19.22-12.58Q15.65-19.10 15.65-28.08L15.65-28.08Q15.65-41.58 23.44-49.45Q31.23-57.31 43.73-57.31L43.73-57.31Q49.64-57.31 54.09-55.24Q58.54-53.17 61.45-50.33L61.45-50.33L57.39-45.73Q54.85-48.10 51.36-49.60Q47.87-51.10 43.81-51.10L43.81-51.10Q34.29-51.10 28.62-44.92Q22.94-38.74 22.94-28.31L22.94-28.31Q22.94-17.80 28.62-11.58Q34.29-5.37 43.65-5.37L43.65-5.37Q48.33-5.37 52.13-7.06Q55.93-8.75 59.07-11.74L59.07-11.74Z" transform="translate(0 305.15999999999997) " fill="#1a182f" stroke="#1a182f" stroke-width="0.128" data-glyph-w="76.72" data-glyph-h="76.72" data-glyph-ascender="67.5136" data-glyph-descender="-9.2064"></path><path d="M65.60-28.39L65.60-28.39Q65.60-14.88 58.12-6.98Q50.64 0.92 38.36 0.92L38.36 0.92Q26.39 0.92 18.76-6.98Q11.12-14.88 11.12-28.39L11.12-28.39Q11.12-41.89 18.72-49.60Q26.31-57.31 38.36-57.31L38.36-57.31Q50.41-57.31 58.00-49.60Q65.60-41.89 65.60-28.39ZM18.41-28.39L18.41-28.39Q18.41-17.80 23.94-11.55Q29.46-5.29 38.36-5.29L38.36-5.29Q47.34-5.29 52.82-11.55Q58.31-17.80 58.31-28.39L58.31-28.39Q58.31-38.90 52.82-45.00Q47.34-51.10 38.36-51.10L38.36-51.10Q29.38-51.10 23.90-45.00Q18.41-38.90 18.41-28.39Z" transform="translate(76.72 305.15999999999997) " fill="#1a182f" stroke="#1a182f" stroke-width="0.128" data-glyph-w="76.72" data-glyph-h="76.72" data-glyph-ascender="67.5136" data-glyph-descender="-9.2064"></path><path d="M33.07 0L17.11 0L17.11-56.39L32.68-56.39Q47.57-56.39 55.24-49.10Q62.91-41.81 62.91-28.46L62.91-28.46Q62.91-15.04 55.32-7.52Q47.72 0 33.07 0L33.07 0ZM24.01-50.48L24.01-5.91L32.22-5.91Q43.81-5.91 49.71-11.74Q55.62-17.57 55.62-28.46L55.62-28.46Q55.62-39.28 49.71-44.88Q43.81-50.48 32.22-50.48L32.22-50.48L24.01-50.48Z" transform="translate(153.44 305.15999999999997) " fill="#1a182f" stroke="#1a182f" stroke-width="0.128" data-glyph-w="76.72" data-glyph-h="76.72" data-glyph-ascender="67.5136" data-glyph-descender="-9.2064"></path><path d="M59.30 0L21.40 0L21.40-56.39L58.31-56.39L58.31-50.33L28.46-50.33L28.46-32.61L52.48-32.61L52.48-26.55L28.46-26.55L28.46-6.06L59.30-6.06L59.30 0Z" transform="translate(230.16 305.15999999999997) " fill="#1a182f" stroke="#1a182f" stroke-width="0.128" data-glyph-w="76.72" data-glyph-h="76.72" data-glyph-ascender="67.5136" data-glyph-descender="-9.2064"></path><path d="M41.89 0L34.75 0L34.75-50.41L14.58-50.41L14.58-56.39L62.14-56.39L62.14-50.41L41.89-50.41L41.89 0Z" transform="translate(306.88 305.15999999999997) " fill="#1a182f" stroke="#1a182f" stroke-width="0.128" data-glyph-w="76.72" data-glyph-h="76.72" data-glyph-ascender="67.5136" data-glyph-descender="-9.2064"></path><path d="M46.11-24.93L63.14 0L55.08 0L38.97-23.86L26.24-23.86L26.24 0L19.49 0L19.49-56.39L38.82-56.39Q45.49-56.39 50.52-54.85Q55.55-53.32 58.38-49.87Q61.22-46.42 61.22-40.51L61.22-40.51Q61.22-33.99 57.16-30.07Q53.09-26.16 46.11-24.93L46.11-24.93ZM37.75-50.56L26.24-50.56L26.24-29.54L37.75-29.54Q45.65-29.54 49.83-32.22Q54.01-34.91 54.01-40.51L54.01-40.51Q54.01-46.19 49.75-48.37Q45.49-50.56 37.75-50.56L37.75-50.56Z" transform="translate(383.6 305.15999999999997) " fill="#1a182f" stroke="#1a182f" stroke-width="0.128" data-glyph-w="76.72" data-glyph-h="76.72" data-glyph-ascender="67.5136" data-glyph-descender="-9.2064"></path><path d="M59.30 0L21.40 0L21.40-56.39L58.31-56.39L58.31-50.33L28.46-50.33L28.46-32.61L52.48-32.61L52.48-26.55L28.46-26.55L28.46-6.06L59.30-6.06L59.30 0Z" transform="translate(460.32000000000005 305.15999999999997) " fill="#1a182f" stroke="#1a182f" stroke-width="0.128" data-glyph-w="76.72" data-glyph-h="76.72" data-glyph-ascender="67.5136" data-glyph-descender="-9.2064"></path><path d="M22.56 0L15.88 0L15.88-56.39L23.09-56.39L47.03-21.17L54.70-9.21L55.08-9.21Q54.16-18.34 54.16-27.16L54.16-27.16L54.16-56.39L60.99-56.39L60.99 0L53.63 0L29.69-35.29L22.17-47.18L21.79-47.18Q22.56-38.44 22.56-29.54L22.56-29.54L22.56 0Z" transform="translate(537.0400000000001 305.15999999999997) " fill="#1a182f" stroke="#1a182f" stroke-width="0.128" data-glyph-w="76.72" data-glyph-h="76.72" data-glyph-ascender="67.5136" data-glyph-descender="-9.2064"></path><path d="M33.07 0L17.11 0L17.11-56.39L32.68-56.39Q47.57-56.39 55.24-49.10Q62.91-41.81 62.91-28.46L62.91-28.46Q62.91-15.04 55.32-7.52Q47.72 0 33.07 0L33.07 0ZM24.01-50.48L24.01-5.91L32.22-5.91Q43.81-5.91 49.71-11.74Q55.62-17.57 55.62-28.46L55.62-28.46Q55.62-39.28 49.71-44.88Q43.81-50.48 32.22-50.48L32.22-50.48L24.01-50.48Z" transform="translate(613.7600000000001 305.15999999999997) " fill="#1a182f" stroke="#1a182f" stroke-width="0.128" data-glyph-w="76.72" data-glyph-h="76.72" data-glyph-ascender="67.5136" data-glyph-descender="-9.2064"></path></g></svg></g>
        </g>
  </svg>